{"accessors" : [{"bufferView" : 0, "byteOffset" : 0, "componentType" : 5123, "count" : 36, "type" : "SCALAR", "max" : [35], "min" : [0]}, {"bufferView" : 1, "byteOffset" : 0, "componentType" : 5126, "count" : 36, "type" : "VEC3", "max" : [4.437934875488281, 2.368459939956665, 0.3122760057449341], "min" : [-4.437934875488281, -0.04737899824976921, -0.3122760057449341], "name" : "POSITION"}, {"bufferView" : 1, "byteOffset" : 12, "componentType" : 5126, "count" : 36, "type" : "VEC2", "max" : [1.4257949590682983, 1.502371072769165], "min" : [-0.4767650067806244, -0.5023709535598755], "name" : "TEXCOORD_0"}, {"bufferView" : 1, "byteOffset" : 20, "componentType" : 5126, "count" : 36, "type" : "VEC3", "max" : [1.0000044107437134, 1.0000044107437134, 1.0000044107437134], "min" : [-1.0000044107437134, -1.0000044107437134, -1.0000044107437134], "name" : "NORMAL"}, {"bufferView" : 0, "byteOffset" : 72, "componentType" : 5123, "count" : 36, "type" : "SCALAR", "max" : [35], "min" : [0]}, {"bufferView" : 2, "byteOffset" : 0, "componentType" : 5126, "count" : 36, "type" : "VEC3", "max" : [-4.280299186706543, 5.119834899902344, 0.7197009921073914], "min" : [-5.719700813293457, -0.0473329983651638, -0.7197009921073914], "name" : "POSITION"}, {"bufferView" : 2, "byteOffset" : 12, "componentType" : 5126, "count" : 36, "type" : "VEC2", "max" : [0.9548580050468445, 0.9980080127716064], "min" : [0.001905999961309135, 0.0019919872283935547], "name" : "TEXCOORD_0"}, {"bufferView" : 2, "byteOffset" : 20, "componentType" : 5126, "count" : 36, "type" : "VEC3", "max" : [1.0000044107437134, 1.0000044107437134, 1.0000044107437134], "min" : [-1.0000044107437134, -1.0000044107437134, -1.0000044107437134], "name" : "NORMAL"}, {"bufferView" : 0, "byteOffset" : 144, "componentType" : 5123, "count" : 36, "type" : "SCALAR", "max" : [35], "min" : [0]}, {"bufferView" : 3, "byteOffset" : 0, "componentType" : 5126, "count" : 36, "type" : "VEC3", "max" : [5.719700813293457, 5.119834899902344, 0.7197009921073914], "min" : [4.280299186706543, -0.0473329983651638, -0.7197009921073914], "name" : "POSITION"}, {"bufferView" : 3, "byteOffset" : 12, "componentType" : 5126, "count" : 36, "type" : "VEC2", "max" : [0.9548580050468445, 0.9980080127716064], "min" : [0.001905999961309135, 0.0019919872283935547], "name" : "TEXCOORD_0"}, {"bufferView" : 3, "byteOffset" : 20, "componentType" : 5126, "count" : 36, "type" : "VEC3", "max" : [1.0000044107437134, 1.0000044107437134, 1.0000044107437134], "min" : [-1.0000044107437134, -1.0000044107437134, -1.0000044107437134], "name" : "NORMAL"}, {"bufferView" : 0, "byteOffset" : 216, "componentType" : 5123, "count" : 96, "type" : "SCALAR", "max" : [91], "min" : [0]}, {"bufferView" : 4, "byteOffset" : 0, "componentType" : 5126, "count" : 92, "type" : "VEC3", "max" : [5.815134048461914, 5.351191997528076, 0.8151329755783081], "min" : [4.184865951538086, 4.912258148193359, -0.8151329755783081], "name" : "POSITION"}, {"bufferView" : 4, "byteOffset" : 12, "componentType" : 5126, "count" : 92, "type" : "VEC2", "max" : [0.9471390247344971, 0.9980080127716064], "min" : [0.0018899999558925629, 0.0019919872283935547], "name" : "TEXCOORD_0"}, {"bufferView" : 4, "byteOffset" : 20, "componentType" : 5126, "count" : 92, "type" : "VEC3", "max" : [1.0000044107437134, 1.0000044107437134, 1.0000044107437134], "min" : [-1.0000044107437134, -1.0000044107437134, -1.0000044107437134], "name" : "NORMAL"}, {"bufferView" : 0, "byteOffset" : 408, "componentType" : 5123, "count" : 36, "type" : "SCALAR", "max" : [35], "min" : [0]}, {"bufferView" : 5, "byteOffset" : 0, "componentType" : 5126, "count" : 36, "type" : "VEC3", "max" : [-4.184865951538086, 5.351191997528076, 0.8151329755783081], "min" : [-5.815134048461914, 4.912258148193359, -0.8151329755783081], "name" : "POSITION"}, {"bufferView" : 5, "byteOffset" : 12, "componentType" : 5126, "count" : 36, "type" : "VEC2", "max" : [0.9471390247344971, 0.9980080127716064], "min" : [0.0018899999558925629, 0.0019919872283935547], "name" : "TEXCOORD_0"}, {"bufferView" : 5, "byteOffset" : 20, "componentType" : 5126, "count" : 36, "type" : "VEC3", "max" : [1.0000044107437134, 1.0000044107437134, 1.0000044107437134], "min" : [-1.0000044107437134, -1.0000044107437134, -1.0000044107437134], "name" : "NORMAL"}, {"bufferView" : 0, "byteOffset" : 480, "componentType" : 5123, "count" : 204, "type" : "SCALAR", "max" : [198], "min" : [0]}, {"bufferView" : 6, "byteOffset" : 0, "componentType" : 5126, "count" : 199, "type" : "VEC3", "max" : [-3.533323049545288, 4.9332380294799805, 0.14058800041675568], "min" : [-3.814500093460083, 2.598051071166992, -0.14058800041675568], "name" : "POSITION"}, {"bufferView" : 6, "byteOffset" : 12, "componentType" : 5126, "count" : 199, "type" : "VEC2", "max" : [0.875, 1], "min" : [0.125, 0], "name" : "TEXCOORD_0"}, {"bufferView" : 6, "byteOffset" : 20, "componentType" : 5126, "count" : 199, "type" : "VEC3", "max" : [1.0000044107437134, 1.0000044107437134, 1.0000044107437134], "min" : [-1.0000044107437134, -1.0000044107437134, -1.0000044107437134], "name" : "NORMAL"}, {"bufferView" : 0, "byteOffset" : 888, "componentType" : 5123, "count" : 204, "type" : "SCALAR", "max" : [198], "min" : [0]}, {"bufferView" : 7, "byteOffset" : 0, "componentType" : 5126, "count" : 199, "type" : "VEC3", "max" : [-2.92084002494812, 4.9332380294799805, 0.14058800041675568], "min" : [-3.202017068862915, 2.598051071166992, -0.14058800041675568], "name" : "POSITION"}, {"bufferView" : 7, "byteOffset" : 12, "componentType" : 5126, "count" : 199, "type" : "VEC2", "max" : [0.875, 1], "min" : [0.125, 0], "name" : "TEXCOORD_0"}, {"bufferView" : 7, "byteOffset" : 20, "componentType" : 5126, "count" : 199, "type" : "VEC3", "max" : [1.0000044107437134, 1.0000044107437134, 1.0000044107437134], "min" : [-1.0000044107437134, -1.0000044107437134, -1.0000044107437134], "name" : "NORMAL"}, {"bufferView" : 0, "byteOffset" : 1296, "componentType" : 5123, "count" : 204, "type" : "SCALAR", "max" : [198], "min" : [0]}, {"bufferView" : 8, "byteOffset" : 0, "componentType" : 5126, "count" : 199, "type" : "VEC3", "max" : [-1.7455860376358032, 4.9332380294799805, 0.14058800041675568], "min" : [-2.0267629623413086, 2.598051071166992, -0.14058800041675568], "name" : "POSITION"}, {"bufferView" : 8, "byteOffset" : 12, "componentType" : 5126, "count" : 199, "type" : "VEC2", "max" : [0.875, 1], "min" : [0.125, 0], "name" : "TEXCOORD_0"}, {"bufferView" : 8, "byteOffset" : 20, "componentType" : 5126, "count" : 199, "type" : "VEC3", "max" : [1.0000044107437134, 1.0000044107437134, 1.0000044107437134], "min" : [-1.0000044107437134, -1.0000044107437134, -1.0000044107437134], "name" : "NORMAL"}, {"bufferView" : 0, "byteOffset" : 1704, "componentType" : 5123, "count" : 204, "type" : "SCALAR", "max" : [199], "min" : [0]}, {"bufferView" : 9, "byteOffset" : 0, "componentType" : 5126, "count" : 200, "type" : "VEC3", "max" : [-2.3580689430236816, 4.9332380294799805, 0.14058800041675568], "min" : [-2.6392459869384766, 2.598051071166992, -0.14058800041675568], "name" : "POSITION"}, {"bufferView" : 9, "byteOffset" : 12, "componentType" : 5126, "count" : 200, "type" : "VEC2", "max" : [0.875, 1], "min" : [0.125, 0], "name" : "TEXCOORD_0"}, {"bufferView" : 9, "byteOffset" : 20, "componentType" : 5126, "count" : 200, "type" : "VEC3", "max" : [1.0000044107437134, 1.0000044107437134, 1.0000044107437134], "min" : [-1.0000044107437134, -1.0000044107437134, -1.0000044107437134], "name" : "NORMAL"}, {"bufferView" : 0, "byteOffset" : 2112, "componentType" : 5123, "count" : 204, "type" : "SCALAR", "max" : [197], "min" : [0]}, {"bufferView" : 10, "byteOffset" : 0, "componentType" : 5126, "count" : 198, "type" : "VEC3", "max" : [-0.5822920203208923, 4.9332380294799805, 0.14058800041675568], "min" : [-0.8634690046310425, 2.598051071166992, -0.14058800041675568], "name" : "POSITION"}, {"bufferView" : 10, "byteOffset" : 12, "componentType" : 5126, "count" : 198, "type" : "VEC2", "max" : [0.875, 1], "min" : [0.125, 0], "name" : "TEXCOORD_0"}, {"bufferView" : 10, "byteOffset" : 20, "componentType" : 5126, "count" : 198, "type" : "VEC3", "max" : [1.0000044107437134, 1.0000044107437134, 1.0000044107437134], "min" : [-1.0000044107437134, -1.0000044107437134, -1.0000044107437134], "name" : "NORMAL"}, {"bufferView" : 0, "byteOffset" : 2520, "componentType" : 5123, "count" : 204, "type" : "SCALAR", "max" : [198], "min" : [0]}, {"bufferView" : 11, "byteOffset" : 0, "componentType" : 5126, "count" : 199, "type" : "VEC3", "max" : [-1.1947760581970215, 4.9332380294799805, 0.14058800041675568], "min" : [-1.4759520292282104, 2.598051071166992, -0.14058800041675568], "name" : "POSITION"}, {"bufferView" : 11, "byteOffset" : 12, "componentType" : 5126, "count" : 199, "type" : "VEC2", "max" : [0.875, 1], "min" : [0.125, 0], "name" : "TEXCOORD_0"}, {"bufferView" : 11, "byteOffset" : 20, "componentType" : 5126, "count" : 199, "type" : "VEC3", "max" : [1.0000044107437134, 1.0000044107437134, 1.0000044107437134], "min" : [-1.0000044107437134, -1.0000044107437134, -1.0000044107437134], "name" : "NORMAL"}, {"bufferView" : 0, "byteOffset" : 2928, "componentType" : 5123, "count" : 204, "type" : "SCALAR", "max" : [199], "min" : [0]}, {"bufferView" : 12, "byteOffset" : 0, "componentType" : 5126, "count" : 200, "type" : "VEC3", "max" : [0.6345760226249695, 4.9332380294799805, 0.14058800041675568], "min" : [0.35339900851249695, 2.598051071166992, -0.14058800041675568], "name" : "POSITION"}, {"bufferView" : 12, "byteOffset" : 12, "componentType" : 5126, "count" : 200, "type" : "VEC2", "max" : [0.875, 1], "min" : [0.125, 0], "name" : "TEXCOORD_0"}, {"bufferView" : 12, "byteOffset" : 20, "componentType" : 5126, "count" : 200, "type" : "VEC3", "max" : [1.0000044107437134, 1.0000044107437134, 1.0000044107437134], "min" : [-1.0000044107437134, -1.0000044107437134, -1.0000044107437134], "name" : "NORMAL"}, {"bufferView" : 0, "byteOffset" : 3336, "componentType" : 5123, "count" : 204, "type" : "SCALAR", "max" : [198], "min" : [0]}, {"bufferView" : 13, "byteOffset" : 0, "componentType" : 5126, "count" : 199, "type" : "VEC3", "max" : [0.022092999890446663, 4.9332380294799805, 0.14058800041675568], "min" : [-0.25908398628234863, 2.598051071166992, -0.14058800041675568], "name" : "POSITION"}, {"bufferView" : 13, "byteOffset" : 12, "componentType" : 5126, "count" : 199, "type" : "VEC2", "max" : [0.875, 1], "min" : [0.125, 0], "name" : "TEXCOORD_0"}, {"bufferView" : 13, "byteOffset" : 20, "componentType" : 5126, "count" : 199, "type" : "VEC3", "max" : [1.0000044107437134, 1.0000044107437134, 1.0000044107437134], "min" : [-1.0000044107437134, -1.0000044107437134, -1.0000044107437134], "name" : "NORMAL"}, {"bufferView" : 0, "byteOffset" : 3744, "componentType" : 5123, "count" : 204, "type" : "SCALAR", "max" : [197], "min" : [0]}, {"bufferView" : 14, "byteOffset" : 0, "componentType" : 5126, "count" : 198, "type" : "VEC3", "max" : [1.8729749917984009, 4.9332380294799805, 0.14058800041675568], "min" : [1.591797947883606, 2.598051071166992, -0.14058800041675568], "name" : "POSITION"}, {"bufferView" : 14, "byteOffset" : 12, "componentType" : 5126, "count" : 198, "type" : "VEC2", "max" : [0.875, 1], "min" : [0.125, 0], "name" : "TEXCOORD_0"}, {"bufferView" : 14, "byteOffset" : 20, "componentType" : 5126, "count" : 198, "type" : "VEC3", "max" : [1.0000044107437134, 1.0000044107437134, 1.0000044107437134], "min" : [-1.0000044107437134, -1.0000044107437134, -1.0000044107437134], "name" : "NORMAL"}, {"bufferView" : 0, "byteOffset" : 4152, "componentType" : 5123, "count" : 204, "type" : "SCALAR", "max" : [199], "min" : [0]}, {"bufferView" : 15, "byteOffset" : 0, "componentType" : 5126, "count" : 200, "type" : "VEC3", "max" : [1.2604910135269165, 4.9332380294799805, 0.14058800041675568], "min" : [0.9793149828910828, 2.598051071166992, -0.14058800041675568], "name" : "POSITION"}, {"bufferView" : 15, "byteOffset" : 12, "componentType" : 5126, "count" : 200, "type" : "VEC2", "max" : [0.875, 1], "min" : [0.125, 0], "name" : "TEXCOORD_0"}, {"bufferView" : 15, "byteOffset" : 20, "componentType" : 5126, "count" : 200, "type" : "VEC3", "max" : [1.0000044107437134, 1.0000044107437134, 1.0000044107437134], "min" : [-1.0000044107437134, -1.0000044107437134, -1.0000044107437134], "name" : "NORMAL"}, {"bufferView" : 0, "byteOffset" : 4560, "componentType" : 5123, "count" : 204, "type" : "SCALAR", "max" : [199], "min" : [0]}, {"bufferView" : 16, "byteOffset" : 0, "componentType" : 5126, "count" : 200, "type" : "VEC3", "max" : [3.132491111755371, 4.9332380294799805, 0.14058800041675568], "min" : [2.8513150215148926, 2.598051071166992, -0.14058800041675568], "name" : "POSITION"}, {"bufferView" : 16, "byteOffset" : 12, "componentType" : 5126, "count" : 200, "type" : "VEC2", "max" : [0.875, 1], "min" : [0.125, 0], "name" : "TEXCOORD_0"}, {"bufferView" : 16, "byteOffset" : 20, "componentType" : 5126, "count" : 200, "type" : "VEC3", "max" : [1.0000044107437134, 1.0000044107437134, 1.0000044107437134], "min" : [-1.0000044107437134, -1.0000044107437134, -1.0000044107437134], "name" : "NORMAL"}, {"bufferView" : 0, "byteOffset" : 4968, "componentType" : 5123, "count" : 204, "type" : "SCALAR", "max" : [198], "min" : [0]}, {"bufferView" : 17, "byteOffset" : 0, "componentType" : 5126, "count" : 199, "type" : "VEC3", "max" : [2.520008087158203, 4.9332380294799805, 0.14058800041675568], "min" : [2.238831043243408, 2.598051071166992, -0.14058800041675568], "name" : "POSITION"}, {"bufferView" : 17, "byteOffset" : 12, "componentType" : 5126, "count" : 199, "type" : "VEC2", "max" : [0.875, 1], "min" : [0.125, 0], "name" : "TEXCOORD_0"}, {"bufferView" : 17, "byteOffset" : 20, "componentType" : 5126, "count" : 199, "type" : "VEC3", "max" : [1.0000044107437134, 1.0000044107437134, 1.0000044107437134], "min" : [-1.0000044107437134, -1.0000044107437134, -1.0000044107437134], "name" : "NORMAL"}, {"bufferView" : 0, "byteOffset" : 5376, "componentType" : 5123, "count" : 204, "type" : "SCALAR", "max" : [198], "min" : [0]}, {"bufferView" : 18, "byteOffset" : 0, "componentType" : 5126, "count" : 199, "type" : "VEC3", "max" : [3.7856240272521973, 4.9332380294799805, 0.14058800041675568], "min" : [3.5044469833374023, 2.598051071166992, -0.14058800041675568], "name" : "POSITION"}, {"bufferView" : 18, "byteOffset" : 12, "componentType" : 5126, "count" : 199, "type" : "VEC2", "max" : [0.9980080127716064, 0.9984580278396606], "min" : [0.0019920000340789557, 0.2273780107498169], "name" : "TEXCOORD_0"}, {"bufferView" : 18, "byteOffset" : 20, "componentType" : 5126, "count" : 199, "type" : "VEC3", "max" : [1.0000044107437134, 1.0000044107437134, 1.0000044107437134], "min" : [-1.0000044107437134, -1.0000044107437134, -1.0000044107437134], "name" : "NORMAL"}, {"bufferView" : 0, "byteOffset" : 5784, "componentType" : 5123, "count" : 36, "type" : "SCALAR", "max" : [35], "min" : [0]}, {"bufferView" : 19, "byteOffset" : 0, "componentType" : 5126, "count" : 36, "type" : "VEC3", "max" : [4.3826680183410645, 2.676755905151367, 0.06835799664258957], "min" : [-4.378647804260254, 2.540040969848633, -0.06835799664258957], "name" : "POSITION"}, {"bufferView" : 19, "byteOffset" : 12, "componentType" : 5126, "count" : 36, "type" : "VEC2", "max" : [0.12331199645996094, 0.9980080127716064], "min" : [0.0002460000105202198, 0.0019919872283935547], "name" : "TEXCOORD_0"}, {"bufferView" : 19, "byteOffset" : 20, "componentType" : 5126, "count" : 36, "type" : "VEC3", "max" : [1.0000044107437134, 1.0000044107437134, 1.0000044107437134], "min" : [-1.0000044107437134, -1.0000044107437134, -1.0000044107437134], "name" : "NORMAL"}, {"bufferView" : 0, "byteOffset" : 5856, "componentType" : 5123, "count" : 36, "type" : "SCALAR", "max" : [35], "min" : [0]}, {"bufferView" : 20, "byteOffset" : 0, "componentType" : 5126, "count" : 36, "type" : "VEC3", "max" : [4.3826680183410645, 4.225751876831055, 0.06835799664258957], "min" : [-4.378647804260254, 4.08903694152832, -0.06835799664258957], "name" : "POSITION"}, {"bufferView" : 20, "byteOffset" : 12, "componentType" : 5126, "count" : 36, "type" : "VEC2", "max" : [0.12331199645996094, 0.9980080127716064], "min" : [0.0002460000105202198, 0.0019919872283935547], "name" : "TEXCOORD_0"}, {"bufferView" : 20, "byteOffset" : 20, "componentType" : 5126, "count" : 36, "type" : "VEC3", "max" : [1.0000044107437134, 1.0000044107437134, 1.0000044107437134], "min" : [-1.0000044107437134, -1.0000044107437134, -1.0000044107437134], "name" : "NORMAL"}], "asset" : {"generator" : "Aspose.3D 24.1.0", "version" : "2.0"}, "buffers" : [{"uri" : "data:application/octet-stream;base64,", "byteLength" : 100860}], "bufferViews" : [{"buffer" : 0, "byteOffset" : 0, "byteLength" : 5928, "target" : 34963}, {"buffer" : 0, "byteOffset" : 5932, "byteLength" : 1152, "byteStride" : 32, "target" : 34962}, {"buffer" : 0, "byteOffset" : 7088, "byteLength" : 1152, "byteStride" : 32, "target" : 34962}, {"buffer" : 0, "byteOffset" : 8244, "byteLength" : 1152, "byteStride" : 32, "target" : 34962}, {"buffer" : 0, "byteOffset" : 9400, "byteLength" : 3072, "byteStride" : 32, "target" : 34962}, {"buffer" : 0, "byteOffset" : 12476, "byteLength" : 1152, "byteStride" : 32, "target" : 34962}, {"buffer" : 0, "byteOffset" : 13632, "byteLength" : 6528, "byteStride" : 32, "target" : 34962}, {"buffer" : 0, "byteOffset" : 20164, "byteLength" : 6528, "byteStride" : 32, "target" : 34962}, {"buffer" : 0, "byteOffset" : 26696, "byteLength" : 6528, "byteStride" : 32, "target" : 34962}, {"buffer" : 0, "byteOffset" : 33228, "byteLength" : 6528, "byteStride" : 32, "target" : 34962}, {"buffer" : 0, "byteOffset" : 39760, "byteLength" : 6528, "byteStride" : 32, "target" : 34962}, {"buffer" : 0, "byteOffset" : 46292, "byteLength" : 6528, "byteStride" : 32, "target" : 34962}, {"buffer" : 0, "byteOffset" : 52824, "byteLength" : 6528, "byteStride" : 32, "target" : 34962}, {"buffer" : 0, "byteOffset" : 59356, "byteLength" : 6528, "byteStride" : 32, "target" : 34962}, {"buffer" : 0, "byteOffset" : 65888, "byteLength" : 6528, "byteStride" : 32, "target" : 34962}, {"buffer" : 0, "byteOffset" : 72420, "byteLength" : 6528, "byteStride" : 32, "target" : 34962}, {"buffer" : 0, "byteOffset" : 78952, "byteLength" : 6528, "byteStride" : 32, "target" : 34962}, {"buffer" : 0, "byteOffset" : 85484, "byteLength" : 6528, "byteStride" : 32, "target" : 34962}, {"buffer" : 0, "byteOffset" : 92016, "byteLength" : 6528, "byteStride" : 32, "target" : 34962}, {"buffer" : 0, "byteOffset" : 98548, "byteLength" : 1152, "byteStride" : 32, "target" : 34962}, {"buffer" : 0, "byteOffset" : 99704, "byteLength" : 1152, "byteStride" : 32, "target" : 34962}], "meshes" : [{"primitives" : [{"attributes" : {"POSITION" : 1, "TEXCOORD_0" : 2, "NORMAL" : 3}, "indices" : 0, "mode" : 4}], "name" : ""}, {"primitives" : [{"attributes" : {"POSITION" : 5, "TEXCOORD_0" : 6, "NORMAL" : 7}, "indices" : 4, "mode" : 4}], "name" : ""}, {"primitives" : [{"attributes" : {"POSITION" : 9, "TEXCOORD_0" : 10, "NORMAL" : 11}, "indices" : 8, "mode" : 4}], "name" : ""}, {"primitives" : [{"attributes" : {"POSITION" : 13, "TEXCOORD_0" : 14, "NORMAL" : 15}, "indices" : 12, "mode" : 4}], "name" : ""}, {"primitives" : [{"attributes" : {"POSITION" : 17, "TEXCOORD_0" : 18, "NORMAL" : 19}, "indices" : 16, "mode" : 4}], "name" : ""}, {"primitives" : [{"attributes" : {"POSITION" : 21, "TEXCOORD_0" : 22, "NORMAL" : 23}, "indices" : 20, "mode" : 4}], "name" : ""}, {"primitives" : [{"attributes" : {"POSITION" : 25, "TEXCOORD_0" : 26, "NORMAL" : 27}, "indices" : 24, "mode" : 4}], "name" : ""}, {"primitives" : [{"attributes" : {"POSITION" : 29, "TEXCOORD_0" : 30, "NORMAL" : 31}, "indices" : 28, "mode" : 4}], "name" : ""}, {"primitives" : [{"attributes" : {"POSITION" : 33, "TEXCOORD_0" : 34, "NORMAL" : 35}, "indices" : 32, "mode" : 4}], "name" : ""}, {"primitives" : [{"attributes" : {"POSITION" : 37, "TEXCOORD_0" : 38, "NORMAL" : 39}, "indices" : 36, "mode" : 4}], "name" : ""}, {"primitives" : [{"attributes" : {"POSITION" : 41, "TEXCOORD_0" : 42, "NORMAL" : 43}, "indices" : 40, "mode" : 4}], "name" : ""}, {"primitives" : [{"attributes" : {"POSITION" : 45, "TEXCOORD_0" : 46, "NORMAL" : 47}, "indices" : 44, "mode" : 4}], "name" : ""}, {"primitives" : [{"attributes" : {"POSITION" : 49, "TEXCOORD_0" : 50, "NORMAL" : 51}, "indices" : 48, "mode" : 4}], "name" : ""}, {"primitives" : [{"attributes" : {"POSITION" : 53, "TEXCOORD_0" : 54, "NORMAL" : 55}, "indices" : 52, "mode" : 4}], "name" : ""}, {"primitives" : [{"attributes" : {"POSITION" : 57, "TEXCOORD_0" : 58, "NORMAL" : 59}, "indices" : 56, "mode" : 4}], "name" : ""}, {"primitives" : [{"attributes" : {"POSITION" : 61, "TEXCOORD_0" : 62, "NORMAL" : 63}, "indices" : 60, "mode" : 4}], "name" : ""}, {"primitives" : [{"attributes" : {"POSITION" : 65, "TEXCOORD_0" : 66, "NORMAL" : 67}, "indices" : 64, "mode" : 4}], "name" : ""}, {"primitives" : [{"attributes" : {"POSITION" : 69, "TEXCOORD_0" : 70, "NORMAL" : 71}, "indices" : 68, "mode" : 4}], "name" : ""}, {"primitives" : [{"attributes" : {"POSITION" : 73, "TEXCOORD_0" : 74, "NORMAL" : 75}, "indices" : 72, "mode" : 4}], "name" : ""}, {"primitives" : [{"attributes" : {"POSITION" : 77, "TEXCOORD_0" : 78, "NORMAL" : 79}, "indices" : 76, "mode" : 4}], "name" : ""}], "nodes" : [{"mesh" : 0, "name" : "pCube1"}, {"mesh" : 1, "name" : "pCube2"}, {"mesh" : 2, "name" : "pCube3"}, {"mesh" : 3, "name" : "pCube4"}, {"mesh" : 4, "name" : "pCube5"}, {"mesh" : 5, "name" : "pCube6"}, {"mesh" : 6, "name" : "pCube7"}, {"mesh" : 7, "name" : "pCube8"}, {"mesh" : 8, "name" : "pCube9"}, {"mesh" : 9, "name" : "pCube10"}, {"mesh" : 10, "name" : "pCube11"}, {"mesh" : 11, "name" : "pCube12"}, {"mesh" : 12, "name" : "pCube13"}, {"mesh" : 13, "name" : "pCube14"}, {"mesh" : 14, "name" : "pCube15"}, {"mesh" : 15, "name" : "pCube16"}, {"mesh" : 16, "name" : "pCube17"}, {"mesh" : 17, "name" : "pCube19"}, {"mesh" : 18, "name" : "pCube20"}, {"mesh" : 19, "name" : "pCube21"}], "scene" : 0, "scenes" : [{"nodes" : [0, 1, 2, 3, 4, 5, 6, 7, 8, 9, 10, 11, 12, 13, 14, 15, 16, 17, 18, 19]}]}